<svg width="16" height="14" viewBox="0 0 16 14" fill="none" xmlns="http://www.w3.org/2000/svg">
<path d="M10.5922 6.60247L6.84222 4.25872C6.77126 4.21439 6.68973 4.18985 6.60608 4.18766C6.52244 4.18547 6.43974 4.20571 6.36655 4.24626C6.29337 4.28682 6.23238 4.34623 6.1899 4.41832C6.14743 4.49041 6.12502 4.57255 6.125 4.65622V9.34372C6.125 9.42739 6.1474 9.50954 6.18987 9.58164C6.23234 9.65373 6.29333 9.71315 6.36651 9.75371C6.4397 9.79427 6.52241 9.81451 6.60605 9.81231C6.6897 9.81011 6.77123 9.78557 6.84219 9.74122L10.5922 7.39747C10.6596 7.35534 10.7152 7.29675 10.7537 7.22721C10.7923 7.15768 10.8125 7.07948 10.8125 6.99998C10.8125 6.92048 10.7923 6.84228 10.7538 6.77274C10.7152 6.7032 10.6596 6.64461 10.5922 6.60247ZM7.06253 8.49797V5.50194L9.45934 6.99997L7.06253 8.49797Z" fill="#93A0CE"/>
<path d="M13.6562 0.90625H2.34375C1.05141 0.90625 0 1.95766 0 3.25V10.75C0 12.0423 1.05141 13.0938 2.34375 13.0938H13.6562C14.9486 13.0938 16 12.0423 16 10.75V3.25C16 1.95766 14.9486 0.90625 13.6562 0.90625ZM15.0625 10.75C15.0625 11.5254 14.4317 12.1562 13.6562 12.1562H2.34375C1.56834 12.1562 0.9375 11.5254 0.9375 10.75V3.25C0.9375 2.47459 1.56834 1.84375 2.34375 1.84375H13.6562C14.4317 1.84375 15.0625 2.47459 15.0625 3.25V10.75Z" fill="#93A0CE"/>
</svg>
